{
  "accessors": [
    {
      "bufferView": 2,
      "componentType": 5126,
      "count": 600,
      "max": [
        3.8282339572906494,
        6.6644191741943359,
        17.340608596801758
      ],
      "min": [
        -3.8482511043548584,
        -1.3500519990921021,
        11.325100898742676
      ],
      "type": "VEC3"
    },
    {
      "bufferView": 2,
      "byteOffset": 7200,
      "componentType": 5126,
      "count": 600,
      "max": [
        0.99993711709976196,
        0.99991762638092041,
        0.99952900409698486
      ],
      "min": [
        -0.99990874528884888,
        -0.99998646974563599,
        -0.99981701374053955
      ],
      "type": "VEC3"
    },
    {
      "bufferView": 1,
      "componentType": 5126,
      "count": 600,
      "max": [
        0.98599600791931152,
        0.99833101034164429
      ],
      "min": [
        0.019290000200271606,
        0.0073549998924136162
      ],
      "type": "VEC2"
    },
    {
      "bufferView": 0,
      "componentType": 5125,
      "count": 2748,
      "max": [
        599
      ],
      "min": [
        0
      ],
      "type": "SCALAR"
    },
    {
      "bufferView": 2,
      "byteOffset": 14400,
      "componentType": 5126,
      "count": 22,
      "max": [
        2.9889500141143799,
        0.38911399245262146,
        9.1891641616821289
      ],
      "min": [
        -2.9711511135101318,
        -0.27662599086761475,
        9.1891641616821289
      ],
      "type": "VEC3"
    },
    {
      "bufferView": 2,
      "byteOffset": 14664,
      "componentType": 5126,
      "count": 22,
      "max": [
        0.99983412027359009,
        0.95089900493621826,
        1
      ],
      "min": [
        -0.99983412027359009,
        -0.95089864730834961,
        0.018214995041489601
      ],
      "type": "VEC3"
    },
    {
      "bufferView": 1,
      "byteOffset": 4800,
      "componentType": 5126,
      "count": 22,
      "max": [
        0,
        0
      ],
      "min": [
        0,
        0
      ],
      "type": "VEC2"
    },
    {
      "bufferView": 0,
      "byteOffset": 10992,
      "componentType": 5125,
      "count": 60,
      "max": [
        21
      ],
      "min": [
        0
      ],
      "type": "SCALAR"
    },
    {
      "bufferView": 2,
      "byteOffset": 14928,
      "componentType": 5126,
      "count": 852,
      "max": [
        11.972958564758301,
        3.1940629482269287,
        21.135217666625977
      ],
      "min": [
        -11.972922325134277,
        -2.927786111831665,
        -0.0073890001513063908
      ],
      "type": "VEC3"
    },
    {
      "bufferView": 2,
      "byteOffset": 25152,
      "componentType": 5126,
      "count": 852,
      "max": [
        1,
        1,
        1
      ],
      "min": [
        -1,
        -1,
        -1
      ],
      "type": "VEC3"
    },
    {
      "bufferView": 1,
      "byteOffset": 4976,
      "componentType": 5126,
      "count": 852,
      "max": [
        0.97086501121520996,
        0.98058998584747314
      ],
      "min": [
        0.012365000322461128,
        0.010267999954521656
      ],
      "type": "VEC2"
    },
    {
      "bufferView": 0,
      "byteOffset": 11232,
      "componentType": 5125,
      "count": 4164,
      "max": [
        851
      ],
      "min": [
        0
      ],
      "type": "SCALAR"
    }
  ],
  "asset": {
    "extras": {
      "author": "Isabel Cotta Pérez (https://sketchfab.com/cicutta)",
      "license": "CC-BY-4.0 (http://creativecommons.org/licenses/by/4.0/)",
      "source": "https://sketchfab.com/3d-models/finn-el-humano-d6ad37f0d0f843e88d0c6232b55deb3a",
      "title": "Finn el humano"
    },
    "generator": "Sketchfab-7.68.0",
    "version": "2.0"
  },
  "bufferViews": [
    {
      "buffer": 0,
      "byteLength": 27888,
      "byteOffset": 0,
      "name": "floatBufferViews",
      "target": 34963
    },
    {
      "buffer": 0,
      "byteLength": 11792,
      "byteOffset": 27888,
      "byteStride": 8,
      "name": "floatBufferViews",
      "target": 34962
    },
    {
      "buffer": 0,
      "byteLength": 35376,
      "byteOffset": 39680,
      "byteStride": 12,
      "name": "floatBufferViews",
      "target": 34962
    }
  ],
  "buffers": [
    {
      "byteLength": 75056,
      "uri": "scene.bin"
    }
  ],
  "images": [
    {
      "uri": "textures/initialShadingGroup_baseColor.png"
    },
    {
      "uri": "textures/lambert2SG_baseColor.png"
    }
  ],
  "materials": [
    {
      "doubleSided": true,
      "emissiveFactor": [
        0,
        0,
        0
      ],
      "name": "initialShadingGroup",
      "pbrMetallicRoughness": {
        "baseColorFactor": [
          1,
          1,
          1,
          1
        ],
        "baseColorTexture": {
          "index": 0,
          "texCoord": 0
        },
        "metallicFactor": 0,
        "roughnessFactor": 1
      }
    },
    {
      "doubleSided": true,
      "emissiveFactor": [
        0,
        0,
        0
      ],
      "name": "lambert2SG",
      "pbrMetallicRoughness": {
        "baseColorFactor": [
          1,
          1,
          1,
          1
        ],
        "baseColorTexture": {
          "index": 1,
          "texCoord": 0
        },
        "metallicFactor": 0,
        "roughnessFactor": 1
      }
    }
  ],
  "meshes": [
    {
      "primitives": [
        {
          "attributes": {
            "NORMAL": 1,
            "POSITION": 0,
            "TEXCOORD_0": 2
          },
          "indices": 3,
          "material": 1,
          "mode": 4
        }
      ]
    },
    {
      "primitives": [
        {
          "attributes": {
            "NORMAL": 5,
            "POSITION": 4,
            "TEXCOORD_0": 6
          },
          "indices": 7,
          "material": 0,
          "mode": 4
        }
      ]
    },
    {
      "primitives": [
        {
          "attributes": {
            "NORMAL": 9,
            "POSITION": 8,
            "TEXCOORD_0": 10
          },
          "indices": 11,
          "material": 0,
          "mode": 4
        }
      ]
    }
  ],
  "nodes": [
    {
      "children": [
        1
      ],
      "name": "RootNode (gltf orientation matrix)",
      "rotation": [
        -0.70710678118654746,
        -0,
        -0,
        0.70710678118654757
      ]
    },
    {
      "children": [
        2
      ],
      "name": "RootNode (model correction matrix)"
    },
    {
      "children": [
        3,
        4,
        5
      ],
      "name": "FINN.obj.cleaner.materialmerger.gles"
    },
    {
      "mesh": 0,
      "name": ""
    },
    {
      "mesh": 1,
      "name": ""
    },
    {
      "mesh": 2,
      "name": ""
    }
  ],
  "samplers": [
    {
      "magFilter": 9729,
      "minFilter": 9987,
      "wrapS": 10497,
      "wrapT": 10497
    }
  ],
  "scene": 0,
  "scenes": [
    {
      "name": "OSG_Scene",
      "nodes": [
        0
      ]
    }
  ],
  "textures": [
    {
      "sampler": 0,
      "source": 0
    },
    {
      "sampler": 0,
      "source": 1
    }
  ]
}

